<?xml version="1.0" standalone="no"?>
<!DOCTYPE svg PUBLIC "-//W3C//DTD SVG 20010904//EN"
 "http://www.w3.org/TR/2001/REC-SVG-20010904/DTD/svg10.dtd">
<svg version="1.0" xmlns="http://www.w3.org/2000/svg"
 width="300.000000pt" height="300.000000pt" viewBox="0 0 300.000000 300.000000"
 preserveAspectRatio="xMidYMid meet">
<metadata>
Created by potrace 1.14, written by Peter Selinger 2001-2017
</metadata>
<g transform="translate(0.000000,300.000000) scale(0.100000,-0.100000)"
fill="#000000" stroke="none">
<path d="M1425 2981 c-57 -27 -1388 -1362 -1410 -1413 -20 -48 -19 -94 3 -141
26 -56 1353 -1383 1410 -1409 50 -23 102 -22 152 3 19 10 166 150 327 311 339
340 349 355 304 454 -28 61 -78 95 -139 96 -27 0 -60 -6 -73 -12 -13 -7 -128
-115 -254 -241 -184 -182 -234 -227 -251 -223 -24 6 -1078 1061 -1088 1088 -6
16 92 118 536 563 299 299 550 543 558 543 8 0 118 -104 245 -230 196 -196
238 -233 276 -244 96 -29 190 33 206 137 11 69 -14 99 -329 414 -253 252 -310
303 -343 312 -56 15 -84 13 -130 -8z"/>
<path d="M2365 2070 c-54 -17 -103 -79 -109 -138 -6 -64 21 -103 178 -262 84
-85 156 -162 159 -171 4 -12 -41 -63 -149 -172 -88 -89 -161 -171 -169 -191
-41 -98 17 -205 122 -222 80 -12 99 1 348 252 215 216 234 237 244 282 9 37 9
60 1 94 -11 42 -35 70 -238 272 -125 124 -237 233 -249 241 -28 19 -99 27
-138 15z"/>
<path d="M1425 1839 c-192 -45 -316 -253 -261 -441 52 -180 239 -292 423 -254
74 16 175 88 218 156 168 268 -73 611 -380 539z"/>
</g>
</svg>
